<svg width="30" height="31" viewBox="0 0 30 31" fill="none" xmlns="http://www.w3.org/2000/svg">
<path d="M13.7772 0.502443C11.3215 0.534943 6.03763 0.929945 3.08188 3.5837C0.887708 5.72121 0.121024 8.87247 0.0317262 12.775C-0.0448147 16.6625 -0.134112 23.9625 7.04797 25.9513V28.9763C7.04797 28.9763 6.9995 30.1888 7.81593 30.4388C8.82372 30.7513 9.39778 29.815 10.3545 28.815L12.1405 26.84C17.0519 27.24 20.8151 26.3163 21.2489 26.1788C22.2439 25.8663 27.8582 25.165 28.7767 17.8637C29.7207 10.325 28.3174 5.57496 25.7916 3.42495L25.7788 3.42245C25.0134 2.73495 21.9518 0.547443 15.1013 0.522443C15.1013 0.522443 14.5962 0.491193 13.7772 0.502443ZM13.8627 2.6237C14.5579 2.61995 14.9853 2.6487 14.9853 2.6487C20.7769 2.6612 23.5464 4.37371 24.197 4.94871C26.3273 6.73496 27.4219 11.0187 26.6208 17.3137C25.8553 23.4138 21.3012 23.8013 20.4592 24.0638C20.102 24.1763 16.7852 24.9763 12.6112 24.7138C12.6112 24.7138 9.49983 28.39 8.53031 29.34C8.37723 29.5025 8.19864 29.5525 8.08383 29.5275C7.91799 29.49 7.86696 29.29 7.87972 29.015L7.90523 23.9913C1.81896 22.3413 2.17615 16.1137 2.23993 12.8637C2.31647 9.61372 2.94156 6.94871 4.79129 5.14871C7.2878 2.9362 11.7756 2.6362 13.8614 2.6237H13.8627ZM14.3219 5.87371C14.2717 5.87355 14.222 5.88309 14.1755 5.9018C14.1291 5.92051 14.0869 5.94801 14.0514 5.98274C14.0158 6.01746 13.9876 6.05872 13.9684 6.10414C13.9491 6.14957 13.9392 6.19828 13.9392 6.24746C13.9392 6.34692 13.9795 6.4423 14.0513 6.51263C14.1231 6.58295 14.2204 6.62246 14.3219 6.62246C15.2703 6.60473 16.2129 6.77124 17.0953 7.11237C17.9777 7.45349 18.7823 7.96249 19.4629 8.60997C20.8534 9.93497 21.5308 11.71 21.5563 14.035C21.5563 14.0842 21.5662 14.133 21.5854 14.1785C21.6047 14.224 21.6329 14.2653 21.6684 14.3002C21.7039 14.335 21.7461 14.3626 21.7925 14.3814C21.839 14.4003 21.8887 14.41 21.939 14.41V14.3987C22.0405 14.3987 22.1378 14.3592 22.2096 14.2889C22.2814 14.2186 22.3217 14.1232 22.3217 14.0237C22.369 12.9303 22.1887 11.8389 21.7918 10.816C21.3948 9.7931 20.7895 8.86006 20.0127 8.07372C18.4947 6.62371 16.5799 5.87371 14.3219 5.87371ZM9.27786 6.73621C9.00658 6.69833 8.73018 6.75118 8.49332 6.88621H8.47801C7.95498 7.18622 7.47278 7.56122 7.01353 8.06122C6.6691 8.46122 6.47647 8.85997 6.42544 9.24747C6.39542 9.47474 6.41721 9.7057 6.48922 9.92372L6.51474 9.93622C6.90794 11.0689 7.421 12.1582 8.04556 13.1862C8.85512 14.626 9.84976 15.9581 11.0051 17.15L11.0434 17.2L11.0944 17.2375L11.1327 17.275L11.171 17.3125C12.3921 18.4475 13.7552 19.4261 15.2276 20.225C16.9115 21.125 17.9346 21.55 18.547 21.725V21.7375C18.7256 21.7875 18.8888 21.8125 19.0547 21.8125C19.5774 21.7751 20.0722 21.5674 20.4605 21.2225C20.958 20.785 21.3535 20.3 21.6469 19.7875V19.775C21.9403 19.2375 21.8382 18.7238 21.4172 18.3738C20.5688 17.6465 19.6503 17.0018 18.6745 16.4487C18.0239 16.0987 17.3606 16.3112 17.0927 16.6612L16.5186 17.3725C16.2252 17.7225 15.6894 17.6725 15.6894 17.6725L15.6741 17.685C11.694 16.685 10.6352 12.7362 10.6352 12.7362C10.6352 12.7362 10.5842 12.1987 10.9541 11.9237L11.6685 11.3612C12.0129 11.0862 12.2553 10.4362 11.8854 9.79872C11.3217 8.84214 10.6637 7.942 9.92081 7.11121C9.75921 6.91483 9.53108 6.78177 9.27786 6.73621ZM14.984 7.84872C14.8825 7.84905 14.7853 7.88888 14.7137 7.95944C14.6422 8.03 14.6022 8.12551 14.6026 8.22497C14.6029 8.32442 14.6435 8.41968 14.7156 8.48977C14.7876 8.55986 14.885 8.59905 14.9865 8.59872C16.2632 8.62043 17.4789 9.1374 18.3671 10.0362C18.7678 10.4694 19.0759 10.9768 19.2731 11.5286C19.4703 12.0804 19.5526 12.6653 19.5152 13.2487C19.5155 13.348 19.556 13.443 19.6277 13.5131C19.6995 13.5831 19.7966 13.6225 19.8979 13.6225L19.9107 13.6375C19.961 13.6375 20.0109 13.6277 20.0574 13.6088C20.1039 13.5899 20.1462 13.5622 20.1817 13.5272C20.2173 13.4923 20.2454 13.4508 20.2646 13.4051C20.2838 13.3595 20.2935 13.3106 20.2934 13.2612C20.3316 11.7737 19.8596 10.5237 18.9284 9.52372C17.9971 8.52372 16.6959 7.96122 15.0376 7.84872C15.0197 7.84749 15.0018 7.84749 14.984 7.84872ZM15.6091 9.87247C15.5579 9.871 15.5069 9.87941 15.4591 9.89724C15.4112 9.91506 15.3674 9.94195 15.3301 9.97637C15.2929 10.0108 15.2629 10.0521 15.2419 10.0978C15.2209 10.1436 15.2094 10.193 15.2079 10.2431C15.2064 10.2932 15.2149 10.3432 15.2331 10.3901C15.2513 10.437 15.2788 10.4799 15.3139 10.5164C15.349 10.5529 15.3911 10.5823 15.4378 10.6029C15.4845 10.6234 15.5349 10.6347 15.5861 10.6362C16.849 10.6987 17.4614 11.3237 17.5379 12.6112C17.5412 12.7085 17.583 12.8007 17.6544 12.8684C17.7258 12.936 17.8213 12.9738 17.9206 12.9737H17.9334C17.9848 12.9722 18.0353 12.9605 18.082 12.9393C18.1287 12.9182 18.1705 12.8881 18.205 12.8507C18.2396 12.8134 18.2661 12.7696 18.283 12.722C18.2998 12.6744 18.3068 12.624 18.3033 12.5737C18.214 10.8987 17.2828 9.95997 15.6244 9.87247C15.6193 9.87238 15.6142 9.87238 15.6091 9.87247Z" fill="#3B3B3B"/>
</svg>
