<svg width="31" height="31" viewBox="0 0 31 31" fill="none" xmlns="http://www.w3.org/2000/svg">
<path d="M25.7923 4.85938C23.0602 2.04688 19.4266 0.5 15.5556 0.5C7.58201 0.5 1.09213 7.1675 1.09213 15.365C1.09213 17.9844 1.7601 20.5456 3.02486 22.7956L0.97168 30.5L8.64236 28.4319C10.7576 29.615 13.1375 30.2431 15.5538 30.2431H15.5593C23.5329 30.2431 30.0283 23.5756 30.0283 15.3781C30.0283 11.405 28.5226 7.67375 25.7905 4.86125L25.7923 4.85938ZM15.5593 27.7344C13.3984 27.7344 11.2814 27.1362 9.43443 26.0112L8.99459 25.7412L4.44292 26.9656L5.65841 22.4075L5.3737 21.9387C4.16369 19.9756 3.53222 17.7031 3.53222 15.365C3.53222 8.55125 8.92707 3.00688 15.5666 3.00688C18.7769 3.00688 21.801 4.29687 24.0695 6.6275C26.3399 8.96562 27.5882 12.065 27.5882 15.3687C27.5827 22.1881 22.1879 27.7344 15.5593 27.7344ZM22.1532 18.4775C21.7937 18.29 20.0142 17.3938 19.6839 17.27C19.3536 17.1463 19.1127 17.0825 18.8681 17.4575C18.629 17.8269 17.9337 18.665 17.722 18.9162C17.5103 19.1619 17.3004 19.1975 16.9409 19.01C16.5813 18.8225 15.4115 18.4306 14.0317 17.165C12.9586 16.1806 12.2304 14.9619 12.0187 14.5925C11.807 14.2231 11.995 14.0187 12.1793 13.8369C12.3454 13.6719 12.5388 13.4037 12.7213 13.1862C12.9038 12.9687 12.9604 12.8169 13.0809 12.5656C13.2013 12.32 13.1429 12.1025 13.0517 11.915C12.9604 11.7275 12.2359 9.89938 11.9402 9.155C11.65 8.4275 11.3471 8.52875 11.1244 8.51562C10.9127 8.50437 10.6736 8.50438 10.4346 8.50438C10.1955 8.50438 9.80127 8.59812 9.47093 8.9675C9.1406 9.33687 8.20435 10.2388 8.20435 12.0669C8.20435 13.895 9.49831 15.6594 9.68081 15.9106C9.86332 16.1562 12.2304 19.9119 15.8568 21.5187C16.7182 21.8994 17.3916 22.1281 17.9154 22.3044C18.7823 22.5856 19.5689 22.5444 20.1913 22.4506C20.8866 22.3456 22.3302 21.5544 22.6332 20.6862C22.9361 19.8181 22.9361 19.0756 22.8449 18.9219C22.7591 18.7569 22.52 18.665 22.155 18.4756L22.1532 18.4775Z" fill="#3B3B3B"/>
</svg>
